<?xml version="1.0" standalone="no"?>
<!DOCTYPE svg PUBLIC "-//W3C//DTD SVG 20010904//EN"
 "http://www.w3.org/TR/2001/REC-SVG-20010904/DTD/svg10.dtd">
<svg version="1.0" xmlns="http://www.w3.org/2000/svg"
 width="1024.000000pt" height="1024.000000pt" viewBox="0 0 1024.000000 1024.000000"
 preserveAspectRatio="xMidYMid meet">
<metadata>
Created by potrace 1.14, written by Peter Selinger 2001-2017
</metadata>
<g transform="translate(0.000000,1024.000000) scale(0.100000,-0.100000)"
fill="#000000" stroke="none">
<path d="M4318 8245 c-1 -1 -82 -6 -178 -9 -96 -3 -200 -8 -230 -10 -30 -3
-91 -8 -135 -11 -44 -4 -92 -8 -106 -11 -14 -2 -41 -6 -60 -8 -19 -3 -56 -8
-84 -11 -91 -12 -274 -45 -399 -71 -183 -38 -588 -158 -691 -203 -26 -12 -55
-21 -64 -21 -10 0 -26 -7 -37 -15 -10 -8 -24 -15 -31 -15 -6 0 -24 -5 -40 -12
-15 -6 -30 -12 -33 -13 -17 -6 -57 -24 -149 -67 -57 -26 -108 -48 -113 -48 -6
0 -23 -9 -39 -21 -16 -11 -29 -17 -29 -14 0 4 -15 -2 -32 -13 -18 -11 -82 -46
-143 -77 -149 -78 -188 -106 -267 -187 -158 -162 -237 -372 -225 -597 3 -58 8
-117 11 -131 7 -28 9 -37 31 -170 9 -52 27 -154 40 -225 13 -72 26 -146 30
-165 3 -19 10 -59 16 -88 6 -29 12 -65 14 -80 4 -28 11 -67 20 -112 3 -14 14
-77 25 -140 11 -63 22 -126 25 -140 3 -14 7 -38 10 -55 3 -16 7 -41 10 -55 3
-14 7 -41 11 -60 13 -77 24 -139 38 -215 8 -44 37 -210 65 -370 77 -437 85
-467 162 -630 43 -91 162 -275 223 -344 251 -283 665 -594 996 -748 144 -67
194 -89 278 -119 119 -44 281 -97 332 -109 3 0 23 -5 45 -10 22 -4 45 -10 50
-11 6 -2 62 -13 125 -24 115 -22 414 -36 437 -22 10 7 -35 76 -95 147 -36 43
-152 225 -204 321 -53 98 -158 325 -158 342 0 5 -19 14 -42 21 -178 53 -431
166 -610 272 -94 56 -238 149 -248 159 -3 3 -18 16 -35 28 -16 12 -43 33 -60
45 -30 22 -202 192 -242 238 -35 41 -104 174 -119 232 -13 50 -37 171 -50 251
-3 21 -8 48 -10 60 -7 38 -36 201 -39 221 -2 11 -10 58 -19 105 -8 47 -18 101
-21 120 -3 19 -8 46 -10 60 -3 14 -7 36 -10 50 -3 14 -7 36 -10 50 -2 14 -7
39 -9 55 -5 28 -30 175 -41 240 -3 17 -12 66 -20 110 -8 44 -26 143 -40 221
-14 77 -27 155 -30 172 -2 17 -6 39 -9 49 -3 10 -8 32 -10 48 -6 46 -35 215
-46 265 -11 53 -18 88 -26 150 l-6 45 174 87 c95 47 198 96 228 109 30 12 73
30 96 40 61 29 373 140 429 154 6 1 17 5 25 8 26 10 204 59 225 62 11 1 50 10
86 18 37 9 78 18 90 21 13 3 33 7 44 9 11 3 40 8 65 12 25 4 52 9 61 10 61 12
234 36 284 40 33 2 87 7 120 10 84 8 201 14 327 15 118 2 112 0 207 82 24 21
50 38 57 38 7 0 14 4 16 8 6 17 165 101 248 132 90 33 233 64 340 75 36 3 76
8 90 10 23 4 84 10 218 21 31 2 101 6 156 9 54 2 100 6 103 8 8 9 -100 130
-157 173 -83 65 -203 125 -277 139 -69 13 -203 34 -253 40 -30 4 -62 9 -70 10
-8 2 -53 6 -100 10 -47 4 -98 9 -115 11 -16 2 -109 6 -205 9 -96 3 -180 8
-187 10 -6 2 -13 2 -15 0z"/>
<path d="M5948 7465 c-2 -2 -79 -6 -173 -9 -93 -3 -186 -8 -205 -10 -19 -3
-71 -7 -115 -11 -83 -6 -112 -10 -180 -20 -22 -3 -53 -8 -70 -10 -311 -35
-478 -116 -620 -300 -114 -146 -163 -285 -211 -589 -3 -21 -7 -48 -10 -60 -2
-11 -13 -70 -24 -131 -11 -60 -22 -121 -25 -135 -3 -13 -7 -42 -10 -65 -3 -22
-8 -47 -10 -55 -4 -12 -54 -291 -70 -390 -2 -14 -7 -36 -9 -50 -3 -13 -8 -42
-11 -65 -3 -22 -8 -47 -11 -56 -3 -10 -6 -31 -9 -48 -2 -17 -8 -54 -14 -83 -6
-29 -13 -69 -16 -88 -3 -19 -8 -46 -10 -60 -3 -14 -8 -36 -10 -50 -8 -40 -97
-543 -100 -560 -1 -8 -5 -31 -9 -50 -29 -152 -21 -390 19 -560 28 -117 132
-395 162 -431 7 -8 13 -20 13 -26 0 -13 48 -99 118 -210 29 -46 52 -87 52 -92
0 -5 4 -11 8 -13 4 -1 37 -45 72 -96 185 -267 453 -547 709 -739 53 -40 101
-76 106 -81 6 -4 59 -38 118 -75 200 -126 409 -211 576 -235 95 -14 386 -7
466 11 11 3 40 8 65 12 230 37 643 181 865 301 28 15 64 34 80 42 31 16 262
160 280 175 6 4 39 29 75 54 91 65 232 183 315 262 262 253 421 504 489 776 8
33 29 141 46 240 36 206 35 202 49 275 6 30 13 71 16 90 3 19 7 46 10 60 3 14
7 39 10 55 3 17 7 41 10 55 3 14 25 142 51 285 48 277 47 274 63 350 5 28 12
70 16 95 3 25 8 52 10 60 2 8 7 31 10 50 9 52 11 64 59 335 25 138 47 268 50
290 4 22 10 64 15 93 9 57 7 184 -4 242 -12 66 -56 183 -91 244 -98 167 -197
251 -456 384 -352 181 -769 344 -1108 432 -69 17 -138 36 -155 41 -35 11 -312
65 -370 73 -22 3 -89 12 -150 21 -60 9 -139 18 -175 21 -36 3 -78 7 -95 9 -16
2 -97 7 -180 10 -82 3 -182 8 -222 10 -39 1 -73 2 -75 0z m-108 -1479 c193
-23 347 -157 403 -352 21 -73 20 -203 -4 -271 -28 -82 -34 -86 -72 -49 -75 72
-131 108 -228 147 -53 20 -62 23 -124 35 -186 36 -336 21 -509 -51 -17 -8 -18
-4 -12 56 4 35 9 80 12 99 24 169 137 300 314 367 35 14 146 31 165 27 6 -2
30 -5 55 -8z m1610 -286 c77 -21 141 -60 204 -124 74 -76 86 -91 86 -110 0 -8
4 -17 9 -21 13 -8 39 -99 46 -166 7 -62 -7 -158 -33 -225 l-18 -44 -39 36
c-112 99 -259 163 -435 189 -127 19 -294 -1 -382 -46 -22 -11 -41 -19 -43 -17
-10 10 -12 78 -4 133 12 89 10 83 47 154 98 192 347 299 562 241z m-2095
-1436 c265 -198 621 -339 985 -390 19 -2 49 -7 67 -10 112 -18 400 -24 528
-12 59 6 175 26 250 42 111 25 270 86 383 147 39 22 72 36 72 31 0 -10 -35
-114 -49 -147 -39 -93 -106 -211 -154 -274 -67 -87 -214 -231 -263 -257 -19
-10 -34 -22 -34 -26 0 -5 -7 -8 -15 -8 -8 0 -15 -4 -15 -10 0 -5 -4 -10 -10
-10 -5 0 -32 -14 -59 -30 -105 -65 -266 -124 -426 -155 -54 -11 -309 -14 -375
-5 -195 28 -402 99 -535 184 -30 20 -58 36 -61 36 -3 0 -11 6 -19 13 -7 6 -25
21 -41 32 -41 29 -125 104 -156 139 -15 17 -39 45 -53 61 -113 129 -223 341
-269 522 -26 100 -28 114 -33 257 l-6 140 104 -105 c57 -58 140 -132 184 -165z"/>
<path d="M3490 6422 c-179 -191 -523 -250 -819 -141 l-54 20 7 -74 c15 -165
80 -307 170 -368 20 -13 36 -28 36 -32 0 -5 4 -6 9 -2 5 3 12 1 16 -5 9 -15
106 -54 165 -67 36 -8 150 -4 191 6 96 25 202 86 250 146 9 11 26 31 38 44 12
13 21 30 21 38 0 7 3 13 8 13 20 0 62 146 62 215 0 85 -39 247 -59 244 -3 0
-22 -17 -41 -37z"/>
<path d="M3730 5245 c-14 -8 -31 -14 -38 -15 -21 0 -159 -68 -220 -106 -57
-37 -104 -76 -167 -139 -153 -154 -254 -378 -255 -566 l0 -66 58 56 c31 31 66
63 77 71 73 56 96 72 145 99 87 50 183 98 210 106 14 4 46 16 71 27 l46 19 17
87 c8 48 18 101 22 117 3 17 8 46 11 65 3 19 15 86 28 148 12 61 22 112 21
112 0 -1 -12 -7 -26 -15z"/>
</g>
</svg>
